<svg width="30" height="30" viewBox="0 0 30 30" fill="none" xmlns="http://www.w3.org/2000/svg">
<rect width="30" height="30" fill="#F13005"/>
<path d="M19.7329 10.34V20.02C20.1062 20.18 20.5662 20.2733 21.1129 20.3C21.1129 20.58 21.0929 20.8267 21.0529 21.04H16.4529C16.4529 20.6933 16.4729 20.4467 16.5129 20.3C16.9796 20.2333 17.3062 20.1333 17.4929 20C17.6796 19.8667 17.7729 19.6267 17.7729 19.28V15.32H12.2529V20.02C12.6396 20.18 13.0929 20.2733 13.6129 20.3C13.6129 20.34 13.6129 20.4133 13.6129 20.52C13.6129 20.6267 13.5929 20.8 13.5529 21.04H8.97289C8.97289 20.9733 8.97289 20.8733 8.97289 20.74C8.97289 20.6067 8.99956 20.46 9.05289 20.3C9.50622 20.2333 9.82622 20.1333 10.0129 20C10.2129 19.8667 10.3129 19.6267 10.3129 19.28V9.6C9.93956 9.44 9.47289 9.34667 8.91289 9.32C8.91289 9 8.93956 8.76 8.99289 8.6H13.5729C13.5729 8.94667 13.5529 9.18667 13.5129 9.32C13.0596 9.37333 12.7329 9.47333 12.5329 9.62C12.3462 9.75333 12.2529 9.99333 12.2529 10.34V14.32H17.7729V9.6C17.3862 9.44 16.9329 9.34667 16.4129 9.32C16.4129 9.28 16.4129 9.20667 16.4129 9.1C16.4129 8.98 16.4329 8.81333 16.4729 8.6H21.0729C21.0862 8.66667 21.0929 8.76667 21.0929 8.9C21.0929 9.03333 21.0596 9.17333 20.9929 9.32C20.5396 9.37333 20.2129 9.47333 20.0129 9.62C19.8262 9.75333 19.7329 9.99333 19.7329 10.34Z" fill="#0D0D0D"/>
</svg>
